<svg xmlns="http://www.w3.org/2000/svg" xmlns:xlink="http://www.w3.org/1999/xlink" width="1920" zoomAndPan="magnify" viewBox="0 0 1440 809.999993" height="1080" preserveAspectRatio="xMidYMid meet" version="1.0"><defs><clipPath id="06f5eab75c"><path d="M 297.183594 34.285156 L 1142.875 34.285156 L 1142.875 775.714844 L 297.183594 775.714844 Z M 297.183594 34.285156 " clip-rule="nonzero"/></clipPath><clipPath id="e70c9dd877"><path d="M 335.433594 34.285156 L 1104.566406 34.285156 C 1114.710938 34.285156 1124.441406 38.316406 1131.613281 45.488281 C 1138.789062 52.664062 1142.816406 62.390625 1142.816406 72.535156 L 1142.816406 737.464844 C 1142.816406 747.609375 1138.789062 757.335938 1131.613281 764.511719 C 1124.441406 771.683594 1114.710938 775.714844 1104.566406 775.714844 L 335.433594 775.714844 C 325.289062 775.714844 315.558594 771.683594 308.386719 764.511719 C 301.210938 757.335938 297.183594 747.609375 297.183594 737.464844 L 297.183594 72.535156 C 297.183594 62.390625 301.210938 52.664062 308.386719 45.488281 C 315.558594 38.316406 325.289062 34.285156 335.433594 34.285156 Z M 335.433594 34.285156 " clip-rule="nonzero"/></clipPath></defs><g clip-path="url(#06f5eab75c)"><g clip-path="url(#e70c9dd877)"><path fill="#000000" d="M 297.183594 34.285156 L 1142.875 34.285156 L 1142.875 775.714844 L 297.183594 775.714844 Z M 297.183594 34.285156 " fill-opacity="1" fill-rule="nonzero"/></g></g></svg>