<svg xmlns="http://www.w3.org/2000/svg" xmlns:xlink="http://www.w3.org/1999/xlink" width="1920" zoomAndPan="magnify" viewBox="0 0 1440 809.999993" height="1080" preserveAspectRatio="xMidYMid meet" version="1.0"><defs><g/></defs><g fill="#000000" fill-opacity="1"><g transform="translate(283.347647, 525.749994)"><g><path d="M 33.59375 0 L 33.59375 -208.203125 L 3 -208.203125 L 3 -257.703125 L 115.796875 -257.703125 L 115.796875 -208.203125 L 85.203125 -208.203125 L 85.203125 0 Z M 33.59375 0 "/></g></g></g><g fill="#000000" fill-opacity="1"><g transform="translate(402.147476, 525.749994)"><g><path d="M 11.40625 0 L 11.40625 -257.703125 L 62.703125 -257.703125 L 62.703125 -165.59375 L 87 -165.59375 L 87 -257.703125 L 138.296875 -257.703125 L 138.296875 0 L 87 0 L 87 -117 L 62.703125 -117 L 62.703125 0 Z M 11.40625 0 "/></g></g></g><g fill="#000000" fill-opacity="1"><g transform="translate(551.847199, 525.749994)"><g><path d="M 11.40625 0 L 11.40625 -257.703125 L 114.59375 -257.703125 L 114.59375 -207.90625 L 63.90625 -207.90625 L 63.90625 -157.796875 L 112.5 -157.796875 L 112.5 -109.203125 L 63.90625 -109.203125 L 63.90625 -50.09375 L 117.90625 -50.09375 L 117.90625 0 Z M 11.40625 0 "/></g></g></g><g fill="#000000" fill-opacity="1"><g transform="translate(675.446931, 525.749994)"><g/></g></g><g fill="#000000" fill-opacity="1"><g transform="translate(745.646772, 525.749994)"><g><path d="M 84.296875 0.296875 C 76.703125 1.703125 72.40625 2.40625 71.40625 2.40625 C 50.601562 2.40625 34.800781 -3.539062 24 -15.4375 C 13.195312 -27.34375 7.796875 -44.796875 7.796875 -67.796875 L 7.796875 -192.296875 C 7.796875 -214.492188 13.242188 -231.34375 24.140625 -242.84375 C 35.046875 -254.34375 50.800781 -260.09375 71.40625 -260.09375 C 92 -260.09375 107.742188 -254.34375 118.640625 -242.84375 C 129.546875 -231.34375 135 -214.492188 135 -192.296875 L 135 -67.796875 C 135 -46.597656 130.195312 -29.800781 120.59375 -17.40625 L 142.796875 -3.296875 L 125.40625 27.296875 Z M 71.40625 -45 C 76.40625 -45 79.601562 -47.398438 81 -52.203125 C 82.394531 -57.003906 83.09375 -63.203125 83.09375 -70.796875 L 83.09375 -191.40625 C 83.09375 -198 82.242188 -203.195312 80.546875 -207 C 78.847656 -210.800781 75.695312 -212.703125 71.09375 -212.703125 C 62.894531 -212.703125 58.796875 -205.703125 58.796875 -191.703125 L 58.796875 -69.90625 C 58.796875 -62.695312 59.59375 -56.742188 61.1875 -52.046875 C 62.789062 -47.347656 66.195312 -45 71.40625 -45 Z M 71.40625 -45 "/></g></g></g><g fill="#000000" fill-opacity="1"><g transform="translate(893.846517, 525.749994)"><g><path d="M 11.40625 -257.703125 L 90.59375 -257.703125 C 103.195312 -257.703125 112.945312 -254.847656 119.84375 -249.140625 C 126.75 -243.441406 131.398438 -235.441406 133.796875 -225.140625 C 136.203125 -214.847656 137.40625 -201.703125 137.40625 -185.703125 C 137.40625 -171.097656 135.503906 -159.695312 131.703125 -151.5 C 127.898438 -143.300781 121.300781 -137.601562 111.90625 -134.40625 C 119.695312 -132.800781 125.34375 -128.898438 128.84375 -122.703125 C 132.34375 -116.503906 134.09375 -108.101562 134.09375 -97.5 L 133.5 0 L 83.09375 0 L 83.09375 -100.796875 C 83.09375 -107.992188 81.691406 -112.59375 78.890625 -114.59375 C 76.097656 -116.59375 71 -117.59375 63.59375 -117.59375 L 63.59375 0 L 11.40625 0 Z M 76.203125 -162.296875 C 83.398438 -162.296875 87 -170.097656 87 -185.703125 C 87 -192.503906 86.695312 -197.601562 86.09375 -201 C 85.5 -204.394531 84.398438 -206.742188 82.796875 -208.046875 C 81.203125 -209.347656 78.90625 -210 75.90625 -210 L 63.90625 -210 L 63.90625 -162.296875 Z M 76.203125 -162.296875 "/></g></g></g><g fill="#000000" fill-opacity="1"><g transform="translate(1036.94627, 525.749994)"><g><path d="M 11.40625 0 L 11.40625 -257.703125 L 114.59375 -257.703125 L 114.59375 -207.59375 L 63.296875 -207.59375 L 63.296875 -166.5 L 111.90625 -166.5 L 111.90625 -117 L 63.296875 -117 L 63.296875 0 Z M 11.40625 0 "/></g></g></g></svg>